<svg width="359" height="436" viewBox="0 0 359 436" fill="none" xmlns="http://www.w3.org/2000/svg">
<path d="M0 145C0 129.536 12.536 117 28 117H59V348H28C12.536 348 0 335.464 0 320V145Z" fill="#A839FF"/>
<path d="M0 289H184V351H28C12.536 351 0 338.464 0 323V289Z" fill="#A839FF"/>
<rect x="211" y="204" width="145" height="58" fill="#A839FF"/>
<rect y="378" width="211" height="58" fill="#A839FF"/>
<rect x="211" y="204" width="58" height="232" fill="#A839FF"/>
<rect x="89" y="117" width="95" height="56" fill="white"/>
<rect x="211" y="117" width="88" height="56" fill="white"/>
<rect x="299" y="289" width="60" height="147" fill="white"/>
<path d="M299 30H359V145C359 160.464 346.464 173 331 173H299V30Z" fill="white"/>
<rect x="89" y="205" width="95" height="56" fill="white"/>
<rect width="89" height="89" rx="28" fill="white"/>
</svg>
