<svg width="51" height="48" viewBox="0 0 51 48" fill="none" xmlns="http://www.w3.org/2000/svg">
<path d="M13.6744 19.1436C13.2327 18.8428 12.7898 18.6924 12.3481 18.6924H10.3628V29.5298H12.3493C12.791 29.5298 13.2338 29.3794 13.6755 29.0786C14.1172 28.7777 14.3381 28.3265 14.3381 27.7237V20.4984C14.3369 19.8968 14.1149 19.4445 13.6744 19.1436ZM46.0025 0.855774H4.99754C2.24263 0.855774 0.00683036 2.88799 0 5.39947V42.7864C0.00683036 45.2979 2.24263 47.3301 4.99754 47.3301H46.0025C48.7585 47.3301 50.9932 45.2979 51 42.7864V5.39947C50.9932 2.88799 48.7574 0.855774 46.0025 0.855774ZM17.554 27.7435C17.554 29.6948 16.2323 32.6513 12.0487 32.645H6.76661V15.4807H12.1603C16.1948 15.4807 17.5517 18.433 17.5529 20.3854L17.554 27.7435ZM29.0154 18.5461H22.95V22.5317H26.6577V25.5992H22.95V29.5838H29.0165V32.6513H21.938C20.6675 32.6814 19.6111 31.7664 19.5792 30.6087V17.6301C19.5485 16.4734 20.5537 15.5128 21.823 15.4838H29.0165L29.0154 18.5461ZM40.8137 30.506C39.311 33.6959 36.6187 33.061 35.4131 30.506L31.0269 15.4848H34.7346L38.1168 27.2818L41.483 15.4848H45.1919L40.8137 30.506Z" fill="#A620F0"/>
</svg>
