<svg width="57" height="48" viewBox="0 0 57 48" fill="none" xmlns="http://www.w3.org/2000/svg">
<path d="M55.7752 22.6406L50.5706 14.2379C50.6819 14.0305 50.7655 13.7971 50.7655 13.5377C50.7655 12.7596 50.0697 12.1112 49.2347 12.0853L43.4735 2.80081C43.5292 2.64522 43.5848 2.48963 43.5848 2.33404C43.5848 1.50418 42.8612 0.855774 41.9983 0.855774C41.4974 0.855774 41.0799 1.06326 40.7737 1.40039H29.6967C29.4184 1.06336 29.0009 0.855871 28.4999 0.855871C27.999 0.855871 27.5815 1.06336 27.3032 1.40049H16.2818C15.9756 1.06336 15.5582 0.855871 15.0572 0.855871C14.1944 0.855871 13.4707 1.50418 13.4707 2.33414C13.4707 2.48973 13.5264 2.67127 13.5821 2.80091L7.76518 12.2151C7.20866 12.4485 6.81891 12.9413 6.81891 13.5378C6.81891 13.5896 6.84675 13.6415 6.84675 13.6934L1.30817 22.6148C0.556726 22.7444 0 23.3409 0 24.0671C0 24.7673 0.528775 25.3638 1.25248 25.5194L6.98588 34.7521C6.93019 34.9077 6.90234 35.0373 6.90234 35.2188C6.90234 35.9191 7.43112 36.5156 8.15482 36.6452L13.5264 45.3332C13.4707 45.4888 13.4151 45.6703 13.4151 45.8518C13.4151 46.6817 14.1387 47.3301 15.0016 47.3301C15.5025 47.3301 15.92 47.1226 16.1984 46.8114H27.3033C27.5815 47.1225 28.0269 47.33 28.4999 47.33C28.973 47.33 29.4184 47.1225 29.6967 46.8113H40.8295C41.1077 47.0966 41.5252 47.2781 41.9706 47.2781C42.8612 47.2781 43.557 46.6038 43.557 45.7998C43.557 45.6443 43.5293 45.5146 43.4736 45.385L48.8452 36.6451C49.5688 36.5155 50.0977 35.919 50.0977 35.2188C50.0977 35.0632 50.0698 34.9076 50.0141 34.752L55.7197 25.5193C56.4433 25.3897 57 24.7931 57 24.067C56.9998 23.3668 56.4709 22.7703 55.7752 22.6406ZM14.5283 42.9471L9.99177 35.6078H14.5283V42.9471ZM14.5283 34.8297H9.99177C9.96392 34.726 9.90823 34.6223 9.85264 34.5185L14.5283 29.9283V34.8297ZM14.5283 28.787L9.29591 33.948C9.15678 33.8961 9.01755 33.8182 8.87842 33.7924L3.08953 24.456C3.14512 24.3264 3.14512 24.1966 3.14512 24.067C3.14512 23.9373 3.14512 23.8337 3.11727 23.7299L8.51672 15.016C8.79509 14.99 9.07335 14.9122 9.32386 14.7566L14.5284 19.7879V28.787H14.5283ZM14.5283 18.8801L9.7691 14.2898C9.90823 14.0823 9.99177 13.823 9.99177 13.5378C9.99177 13.5118 9.96392 13.4599 9.96392 13.434L14.5283 11.9038V18.8801ZM14.5283 11.0739L9.99177 12.604L14.5283 5.29057V11.0739ZM48.4554 14.8604L48.539 14.99L44.8651 31.173L38.2411 24.6635L48.4276 14.8344L48.4554 14.8604ZM28.8896 33.6886L30.0864 34.8297H27.7207L28.8896 33.6886ZM28.8617 32.5994L20.2061 24.3264L28.4721 16.1571L37.1 24.6376L28.8617 32.5994ZM29.4184 33.1699L37.6566 25.2081L44.6702 32.1066L44.058 34.8297H31.1718L29.4184 33.1699ZM41.2191 3.60491C41.3304 3.65681 41.4417 3.7087 41.5809 3.73465L47.5926 13.4859V13.5378C47.5926 13.823 47.676 14.0823 47.8153 14.2898L37.6845 24.0929L29.0567 15.6125L41.2191 3.60491ZM40.2729 3.39742L28.4721 15.0419L22.5439 9.20669L39.8274 3.39742H40.2729ZM27.4423 3.39742C27.7206 3.65671 28.0823 3.8123 28.4999 3.8123C28.9175 3.8123 29.2792 3.65671 29.5576 3.39742H37.3505L21.9317 8.58423L16.6436 3.39742H27.4423ZM15.3634 3.94204L15.4747 3.73465C15.5686 3.71229 15.6614 3.68632 15.753 3.65681L21.0689 8.86966L15.3634 10.7887V3.94204ZM15.3634 11.6186L21.6811 9.49202L27.8876 15.6125L19.6216 23.7558L15.3634 19.6842V11.6186ZM15.3634 20.5918L19.1484 24.2485L15.3634 27.9572V20.5918ZM15.3634 29.0983L19.7329 24.7932L28.333 33.1181L26.5517 34.8297H15.3634V29.0983ZM16.087 44.7885C15.92 44.6329 15.7252 44.5292 15.4747 44.4513L15.3634 44.2957V35.6078H25.7446L16.2261 44.7885H16.087ZM29.5854 44.7885C29.3071 44.5551 28.9175 44.3736 28.4999 44.3736C28.0823 44.3736 27.6929 44.5551 27.4144 44.7885H17.3949L26.9134 35.6078H30.8934L40.4119 44.7885H29.5854ZM42.0541 43.6473L41.6088 44.3735C41.4697 44.3994 41.3584 44.4512 41.247 44.5031L31.979 35.6077H43.8633L42.0541 43.6473ZM43.3899 41.4948L44.7259 35.6078H47.0081L43.3899 41.4948ZM47.0081 34.8297H44.8929L45.366 32.781L47.1473 34.5445C47.0917 34.6222 47.036 34.7259 47.0081 34.8297ZM53.8826 24.4301L48.1214 33.7924C47.9822 33.8442 47.843 33.8961 47.7039 33.9738L45.5608 31.8472L49.1512 15.9756L53.9104 23.6521C53.8826 23.7818 53.8269 23.9114 53.8269 24.067C53.8269 24.1966 53.8548 24.3004 53.8826 24.4301Z" fill="#A620F0"/>
</svg>
