<svg width="156" height="178" viewBox="0 0 156 178" fill="none" xmlns="http://www.w3.org/2000/svg">
<g filter="url(#filter0_d_1_9)">
<path d="M28 29L5 42V128L77 169L150 128V70L127 57L77 86V57.5L150 14.5L126 1L53 43V100L76.5 114L126 85L125.5 113.5L76.5 141.5L28 113.5V29Z" fill="#A839FF"/>
<path d="M28 29L5 42V128L77 169L150 128V70L127 57L77 86V57.5L150 14.5L126 1L53 43V100L76.5 114L126 85L125.5 113.5L76.5 141.5L28 113.5V29Z" stroke="black"/>
</g>
<defs>
<filter id="filter0_d_1_9" x="0.5" y="0.424759" width="154.502" height="177.15" filterUnits="userSpaceOnUse" color-interpolation-filters="sRGB">
<feFlood flood-opacity="0" result="BackgroundImageFix"/>
<feColorMatrix in="SourceAlpha" type="matrix" values="0 0 0 0 0 0 0 0 0 0 0 0 0 0 0 0 0 0 127 0" result="hardAlpha"/>
<feOffset dy="4"/>
<feGaussianBlur stdDeviation="2"/>
<feComposite in2="hardAlpha" operator="out"/>
<feColorMatrix type="matrix" values="0 0 0 0 0 0 0 0 0 0 0 0 0 0 0 0 0 0 0.25 0"/>
<feBlend mode="normal" in2="BackgroundImageFix" result="effect1_dropShadow_1_9"/>
<feBlend mode="normal" in="SourceGraphic" in2="effect1_dropShadow_1_9" result="shape"/>
</filter>
</defs>
</svg>
